<svg width="390" height="844" viewBox="0 0 390 844" fill="none" xmlns="http://www.w3.org/2000/svg">
<g clip-path="url(#clip0_515_58)">
<rect width="390" height="844" fill="white"/>
<g filter="url(#filter0_d_515_58)">
<rect x="315.75" y="-159" width="103.713" height="309.498" transform="rotate(30 315.75 -159)" fill="#30BA00"/>
</g>
<g filter="url(#filter1_d_515_58)">
<rect x="161.75" y="108" width="103.713" height="309.498" transform="rotate(30 161.75 108)" fill="#A34DAA"/>
</g>
<g filter="url(#filter2_d_515_58)">
<rect x="7.75" y="375" width="103.713" height="309.498" transform="rotate(30 7.75 375)" fill="#E10000"/>
</g>
<g filter="url(#filter3_d_515_58)">
<rect x="176.182" y="-123.479" width="103.713" height="309.498" transform="rotate(30 176.182 -123.479)" fill="#ACBEEB"/>
</g>
<g filter="url(#filter4_d_515_58)">
<rect x="21.748" y="144.508" width="103.713" height="309.498" transform="rotate(30 21.748 144.508)" fill="#FFBFBF"/>
</g>
<g filter="url(#filter5_d_515_58)">
<rect x="34.7969" y="-86.3849" width="103.713" height="309.498" transform="rotate(30 34.7969 -86.3849)" fill="#FFC700"/>
</g>
<g filter="url(#filter6_d_515_58)">
<path d="M341.364 710.023L328.961 731.506L229.432 674.072C223.499 670.647 221.467 663.061 224.892 657.129C228.317 651.197 235.902 649.164 241.835 652.589L341.364 710.023ZM333.939 626.612C340.354 630.315 342.552 638.518 338.848 644.932L283.204 741.311L259.974 727.899L315.618 631.521C319.322 625.106 327.524 622.908 333.939 626.612Z" fill="#81C3FF"/>
<path d="M434.223 763.636C440.156 767.061 442.188 774.646 438.763 780.578C435.338 786.511 427.753 788.543 421.82 785.118L328.961 731.506L341.364 710.023L434.223 763.636ZM410.76 670.935C417.175 674.638 419.373 682.841 415.669 689.256L358.315 788.596L334.909 775.632L392.44 675.844C396.143 669.429 404.346 667.231 410.76 670.935Z" fill="#81C3FF"/>
<path d="M299.162 788.411L286.759 809.894L185.014 751.151C179.082 747.726 177.049 740.141 180.474 734.209C183.899 728.276 191.485 726.244 197.417 729.669L299.162 788.411ZM259.974 727.899L283.204 741.311L225.676 841.099C221.972 847.513 213.77 849.711 207.355 846.008C200.94 842.304 198.743 834.102 202.446 827.687L259.974 727.899Z" fill="#81C3FF"/>
<path d="M389.804 840.715C395.736 844.14 397.769 851.726 394.344 857.658C390.919 863.59 383.333 865.623 377.401 862.198L286.759 809.894L299.162 788.411L389.804 840.715ZM334.909 775.632L358.315 788.596L302.495 885.422C298.791 891.837 290.589 894.034 284.174 890.331C277.759 886.627 275.562 878.425 279.265 872.01L334.909 775.632Z" fill="#81C3FF"/>
</g>
<g filter="url(#filter7_d_515_58)">
<path d="M394 127C394 149.091 376.091 167 354 167C331.909 167 314 149.091 314 127C314 104.909 331.909 87 354 87C376.091 87 394 104.909 394 127ZM331.622 127C331.622 139.359 341.641 149.378 354 149.378C366.359 149.378 376.378 139.359 376.378 127C376.378 114.641 366.359 104.622 354 104.622C341.641 104.622 331.622 114.641 331.622 127Z" fill="#FFC700"/>
</g>
<g filter="url(#filter8_d_515_58)">
<path d="M438 197.5C438 217.106 422.106 233 402.5 233C382.894 233 367 217.106 367 197.5C367 177.894 382.894 162 402.5 162C422.106 162 438 177.894 438 197.5ZM382.64 197.5C382.64 208.469 391.531 217.36 402.5 217.36C413.469 217.36 422.36 208.469 422.36 197.5C422.36 186.531 413.469 177.64 402.5 177.64C391.531 177.64 382.64 186.531 382.64 197.5Z" fill="#81C3FF"/>
</g>
<g filter="url(#filter9_d_515_58)">
<path d="M416 312C416 334.091 398.091 352 376 352C353.909 352 336 334.091 336 312C336 289.909 353.909 272 376 272C398.091 272 416 289.909 416 312ZM353.622 312C353.622 324.359 363.641 334.378 376 334.378C388.359 334.378 398.378 324.359 398.378 312C398.378 299.641 388.359 289.622 376 289.622C363.641 289.622 353.622 299.641 353.622 312Z" fill="#FF9D9D"/>
</g>
<g filter="url(#filter10_d_515_58)">
<path d="M416 554.5C416 576.868 397.868 595 375.5 595C353.132 595 335 576.868 335 554.5C335 532.132 353.132 514 375.5 514C397.868 514 416 532.132 416 554.5ZM352.842 554.5C352.842 567.013 362.987 577.158 375.5 577.158C388.013 577.158 398.158 567.013 398.158 554.5C398.158 541.987 388.013 531.842 375.5 531.842C362.987 531.842 352.842 541.987 352.842 554.5Z" fill="#FF6A6A"/>
</g>
<g filter="url(#filter11_d_515_58)">
<path d="M392.006 438.163C393.363 443.228 390.357 448.433 385.293 449.791V449.791C380.228 451.148 375.022 448.142 373.665 443.077L357.617 383.186C356.26 378.122 359.266 372.916 364.331 371.559V371.559C369.395 370.202 374.601 373.207 375.958 378.272L392.006 438.163ZM415.288 399.871C416.756 405.348 413.506 410.977 408.029 412.444L345.134 429.297C339.657 430.764 334.028 427.514 332.561 422.038V422.038C331.093 416.561 334.343 410.932 339.82 409.465L402.715 392.612C408.192 391.144 413.821 394.394 415.288 399.871V399.871Z" fill="#FF6A6A"/>
</g>
<g filter="url(#filter12_d_515_58)">
<path d="M362.753 253.787C365.531 258.599 363.882 264.753 359.07 267.531V267.531C354.258 270.309 348.104 268.66 345.326 263.848L312.472 206.942C309.693 202.13 311.342 195.977 316.154 193.199V193.199C320.966 190.42 327.12 192.069 329.898 196.881L362.753 253.787ZM376.083 208.203C379.087 213.407 377.304 220.061 372.101 223.065L312.34 257.568C307.137 260.572 300.483 258.789 297.479 253.585V253.585C294.474 248.382 296.257 241.728 301.461 238.724L361.221 204.221C366.425 201.217 373.079 203 376.083 208.203V208.203Z" fill="#30BA00"/>
</g>
<g filter="url(#filter13_d_515_58)">
<path d="M369.599 486.516C377.889 488.737 382.809 497.259 380.588 505.548V505.548C378.366 513.838 369.845 518.758 361.555 516.537L263.523 490.269C255.233 488.048 250.314 479.527 252.535 471.237V471.237C254.756 462.947 263.277 458.027 271.567 460.249L369.599 486.516ZM334.374 422.173C343.338 424.575 348.658 433.789 346.256 442.753L318.67 545.703C316.268 554.667 307.054 559.987 298.09 557.585V557.585C289.126 555.183 283.806 545.969 286.208 537.005L313.793 434.055C316.195 425.091 325.409 419.771 334.374 422.173V422.173Z" fill="#30BA00"/>
</g>
<g filter="url(#filter14_d_515_58)">
<path d="M319 225C319 244.33 303.33 260 284 260C264.67 260 249 244.33 249 225C249 205.67 264.67 190 284 190C303.33 190 319 205.67 319 225ZM264.419 225C264.419 235.814 273.186 244.581 284 244.581C294.814 244.581 303.581 235.814 303.581 225C303.581 214.186 294.814 205.419 284 205.419C273.186 205.419 264.419 214.186 264.419 225Z" fill="#FF6A6A"/>
</g>
<g filter="url(#filter15_d_515_58)">
<path d="M314.884 176.623C318.592 180.331 318.592 186.342 314.884 190.049V190.049C311.177 193.757 305.166 193.757 301.458 190.049L257.615 146.206C253.907 142.498 253.907 136.487 257.615 132.78V132.78C261.322 129.072 267.334 129.072 271.041 132.78L314.884 176.623ZM315.902 131.82C319.911 135.829 319.911 142.329 315.902 146.338L269.859 192.381C265.85 196.39 259.35 196.39 255.341 192.381V192.381C251.332 188.372 251.332 181.872 255.341 177.862L301.384 131.82C305.393 127.811 311.893 127.811 315.902 131.82V131.82Z" fill="#81C3FF"/>
</g>
<g filter="url(#filter16_d_515_58)">
<path d="M375.314 57.9141C381.034 61.2162 382.993 68.5296 379.691 74.2491V74.2491C376.389 79.9685 369.076 81.9281 363.356 78.626L295.721 39.5771C290.002 36.275 288.042 28.9615 291.344 23.2421V23.2421C294.647 17.5227 301.96 15.563 307.679 18.8652L375.314 57.9141ZM361.946 3.07268C368.131 6.64337 370.25 14.5516 366.679 20.7362L325.671 91.7638C322.101 97.9484 314.192 100.067 308.008 96.4967V96.4967C301.823 92.926 299.704 85.0178 303.275 78.8332L344.283 7.80563C347.853 1.62101 355.761 -0.498015 361.946 3.07268V3.07268Z" fill="#FF9D9D"/>
</g>
<g filter="url(#filter17_d_515_58)">
<path d="M321.64 362.341C325.965 369.832 323.399 379.41 315.908 383.735V383.735C308.417 388.06 298.838 385.494 294.513 378.003L243.37 289.419C239.045 281.928 241.611 272.35 249.102 268.025V268.025C256.593 263.7 266.172 266.266 270.497 273.757L321.64 362.341ZM342.391 291.382C347.068 299.482 344.293 309.84 336.192 314.517L243.165 368.226C235.065 372.902 224.707 370.127 220.031 362.027V362.027C215.354 353.927 218.129 343.569 226.23 338.892L319.257 285.183C327.357 280.506 337.715 283.282 342.391 291.382V291.382Z" fill="#FFC700"/>
</g>
<g filter="url(#filter18_d_515_58)">
<path d="M319 444.5C319 475.704 293.704 501 262.5 501C231.296 501 206 475.704 206 444.5C206 413.296 231.296 388 262.5 388C293.704 388 319 413.296 319 444.5ZM230.891 444.5C230.891 461.957 245.043 476.109 262.5 476.109C279.957 476.109 294.109 461.957 294.109 444.5C294.109 427.043 279.957 412.891 262.5 412.891C245.043 412.891 230.891 427.043 230.891 444.5Z" fill="#81C3FF"/>
</g>
<path d="M49.1342 807.448V814.345H47.6801V807.448H49.1342Z" fill="black"/>
<path d="M54.0615 809.432C54.0347 809.16 53.9194 808.949 53.7156 808.799C53.5119 808.648 53.2354 808.573 52.8862 808.573C52.6489 808.573 52.4485 808.607 52.285 808.674C52.1216 808.739 51.9962 808.83 51.9089 808.947C51.8239 809.064 51.7813 809.196 51.7813 809.344C51.7768 809.468 51.8026 809.575 51.8586 809.667C51.9168 809.759 51.9962 809.839 52.097 809.907C52.1977 809.972 52.3142 810.029 52.4462 810.078C52.5783 810.125 52.7194 810.166 52.8694 810.199L53.4873 810.348C53.7873 810.415 54.0627 810.505 54.3134 810.617C54.5642 810.729 54.7813 810.867 54.9649 811.031C55.1485 811.195 55.2906 811.388 55.3914 811.61C55.4944 811.833 55.547 812.088 55.5492 812.375C55.547 812.797 55.4395 813.163 55.2268 813.473C55.0164 813.78 54.7119 814.019 54.3134 814.19C53.9171 814.358 53.4392 814.442 52.8795 814.442C52.3242 814.442 51.8406 814.357 51.4287 814.187C51.019 814.016 50.6989 813.763 50.4683 813.429C50.2399 813.092 50.1201 812.676 50.1089 812.18H51.516C51.5317 812.411 51.5977 812.604 51.7141 812.759C51.8328 812.911 51.9906 813.027 52.1877 813.106C52.3869 813.182 52.6119 813.22 52.8627 813.22C53.1089 813.22 53.3227 813.184 53.5041 813.112C53.6877 813.04 53.8298 812.941 53.9306 812.813C54.0313 812.685 54.0817 812.538 54.0817 812.371C54.0817 812.217 54.0358 812.086 53.944 811.981C53.8544 811.875 53.7224 811.786 53.5477 811.711C53.3753 811.637 53.1638 811.57 52.913 811.509L52.1642 811.321C51.5843 811.179 51.1265 810.958 50.7906 810.657C50.4548 810.357 50.288 809.951 50.2903 809.442C50.288 809.024 50.3989 808.659 50.6227 808.347C50.8489 808.035 51.1589 807.792 51.553 807.617C51.947 807.442 52.3947 807.354 52.8962 807.354C53.4067 807.354 53.8522 807.442 54.2328 807.617C54.6156 807.792 54.9134 808.035 55.1261 808.347C55.3388 808.659 55.4485 809.021 55.4552 809.432H54.0615Z" fill="black"/>
<path d="M57.5558 814.345H55.9975L58.3718 807.448H60.2457L62.6166 814.345H61.0584L59.3356 809.024H59.2819L57.5558 814.345ZM58.4352 811.634H60.1806L60.5492 812.772H58.0659L58.4352 811.634Z" fill="black"/>
<path d="M64.6298 814.345H63.0716L65.4459 807.448H67.3197L69.6906 814.345H68.1324L66.4097 809.024H66.3559L64.6298 814.345ZM65.5 811.634H67.2547L67.6232 812.772H65.14L65.5 811.634Z" fill="black"/>
<path d="M76.2635 809.863H74.7926C74.7657 809.672 74.7109 809.502 74.628 809.354C74.5452 809.204 74.4388 809.076 74.309 808.97C74.1791 808.865 74.0292 808.784 73.859 808.728C73.6911 808.672 73.5086 808.644 73.3116 808.644C72.9556 808.644 72.6456 808.732 72.3814 808.91C72.1172 809.085 71.9124 809.341 71.7668 809.678C71.6213 810.012 71.5486 810.418 71.5486 810.897C71.5486 811.388 71.6213 811.801 71.7668 812.136C71.9146 812.47 72.1206 812.723 72.3847 812.893C72.6489 813.064 72.9545 813.149 73.3015 813.149C73.4963 813.149 73.6765 813.124 73.8422 813.072C74.0101 813.02 74.159 812.945 74.2888 812.846C74.4187 812.745 74.5262 812.623 74.6112 812.479C74.6986 812.336 74.759 812.172 74.7926 811.988L76.2635 811.994C76.2254 812.311 76.1303 812.616 75.978 812.91C75.828 813.202 75.6254 813.464 75.3702 813.695C75.1172 813.924 74.815 814.106 74.4635 814.24C74.1142 814.373 73.7191 814.439 73.278 814.439C72.6646 814.439 72.1161 814.3 71.6325 814.022C71.1512 813.743 70.7706 813.34 70.4907 812.813C70.2131 812.285 70.0743 811.646 70.0743 810.897C70.0743 810.144 70.2153 809.505 70.4974 808.977C70.7795 808.45 71.1624 808.048 71.6459 807.772C72.1295 807.493 72.6736 807.354 73.278 807.354C73.6765 807.354 74.0459 807.41 74.3862 807.522C74.7288 807.635 75.0321 807.798 75.2963 808.014C75.5605 808.227 75.7754 808.489 75.9411 808.799C76.109 809.108 76.2165 809.463 76.2635 809.863Z" fill="black"/>
<path d="M79.4949 814.345V807.448H80.949V810.294H83.9009V807.448H85.3516V814.345H83.9009V811.496H80.949V814.345H79.4949Z" fill="black"/>
<path d="M92.8706 810.897C92.8706 811.649 92.7285 812.288 92.4442 812.816C92.1621 813.344 91.777 813.747 91.2889 814.025C90.8031 814.301 90.2568 814.439 89.6501 814.439C89.0389 814.439 88.4904 814.3 88.0046 814.022C87.5188 813.743 87.1348 813.34 86.8527 812.813C86.5706 812.285 86.4296 811.646 86.4296 810.897C86.4296 810.144 86.5706 809.505 86.8527 808.977C87.1348 808.45 87.5188 808.048 88.0046 807.772C88.4904 807.493 89.0389 807.354 89.6501 807.354C90.2568 807.354 90.8031 807.493 91.2889 807.772C91.777 808.048 92.1621 808.45 92.4442 808.977C92.7285 809.505 92.8706 810.144 92.8706 810.897ZM91.3964 810.897C91.3964 810.409 91.3236 809.999 91.1781 809.664C91.0348 809.33 90.8322 809.076 90.5703 808.903C90.3083 808.73 90.0016 808.644 89.6501 808.644C89.2986 808.644 88.9919 808.73 88.73 808.903C88.468 809.076 88.2643 809.33 88.1188 809.664C87.9755 809.999 87.9039 810.409 87.9039 810.897C87.9039 811.384 87.9755 811.795 88.1188 812.129C88.2643 812.464 88.468 812.717 88.73 812.89C88.9919 813.063 89.2986 813.149 89.6501 813.149C90.0016 813.149 90.3083 813.063 90.5703 812.89C90.8322 812.717 91.0348 812.464 91.1781 812.129C91.3236 811.795 91.3964 811.384 91.3964 810.897Z" fill="black"/>
<path d="M100.154 807.448H101.947L103.841 812.082H103.922L105.816 807.448H107.609V814.345H106.199V809.856H106.141L104.362 814.311H103.401L101.621 809.839H101.564V814.345H100.154V807.448Z" fill="black"/>
<path d="M108.807 814.345V807.448H113.441V808.65H110.261V810.294H113.203V811.496H110.261V813.143H113.455V814.345H108.807Z" fill="black"/>
<path d="M114.597 814.345V807.448H116.051V813.143H119V814.345H114.597Z" fill="black"/>
<path fill-rule="evenodd" clip-rule="evenodd" d="M5 784H59.8489V805.882H58.9032V784.948H5.94567V838.052H58.9032V815.86H59.8489V839H5V784Z" fill="black"/>
<path d="M18.2394 795.853L38.8183 803.676C41.8486 804.603 43.9767 807.294 44.2217 810.421C44.2458 810.728 43.9572 810.954 43.659 810.881L25.6399 806.062C24.0653 805.754 22.7208 804.734 21.9964 803.298L18.2394 795.853Z" fill="#AE0000"/>
<path d="M21.5492 805.758L44.1182 811.414C44.3187 811.461 44.4646 811.828 44.4803 811.869C44.4813 811.872 44.482 811.874 44.4829 811.876C44.5952 812.205 45.1219 814.819 45.1965 815.19C45.2026 815.22 45.2061 815.249 45.2033 815.28C45.1792 815.541 44.9447 815.737 44.6789 815.707L31.0063 814.088C28.1956 813.952 25.6335 812.432 24.1616 810.027L21.5492 805.758Z" fill="#AE0000"/>
<path d="M25.3319 813.871L44.9546 816.193C45.193 816.22 45.3182 816.375 45.3728 816.664C45.4185 816.905 45.5913 817.8 45.6467 818.087C45.6581 818.146 45.6653 818.206 45.6595 818.267C45.6152 818.733 45.2329 819.104 44.7565 819.123L34.6038 819.081C30.901 819.231 27.3875 816.963 25.3319 813.871Z" fill="#AE0000"/>
<path d="M43.9571 819.976C43.9867 819.738 44.1879 819.56 44.4263 819.56H45.9557C46.1941 819.56 46.3953 819.738 46.4249 819.976L46.7891 822.898C46.9704 824.352 46.3606 825.793 45.191 826.672C44.0214 825.793 43.4116 824.352 43.5929 822.898L43.9571 819.976Z" fill="#AE0000"/>
<path d="M41.3332 821.758C41.3827 821.56 41.4743 821.374 41.6017 821.214L42.3851 820.233C42.6718 819.873 43.2495 820.093 43.2266 820.552L43.1029 823.032C43.0783 823.526 42.7989 823.972 42.3655 824.209L40.4627 825.25L41.3332 821.758Z" fill="#AE0000"/>
<path d="M93.9478 807.448V814.345H95.4019V811.9V810.728V808.64H96.3825C96.6623 808.64 96.8941 808.682 97.0776 808.765C97.2635 808.846 97.4011 808.965 97.4907 809.122C97.5825 809.279 97.6284 809.472 97.6284 809.701C97.6284 809.928 97.5825 810.118 97.4907 810.27C97.4011 810.423 97.2646 810.537 97.081 810.614C96.8974 810.69 96.6668 810.728 96.3892 810.728H95.4019V811.9H96.4633L97.7661 814.345H99.3713L97.9121 811.666C97.933 811.656 97.9538 811.647 97.9743 811.637C98.3482 811.462 98.6336 811.211 98.8306 810.883C99.0276 810.553 99.1261 810.159 99.1261 809.701C99.1261 809.245 99.0288 808.849 98.834 808.512C98.6414 808.173 98.3605 807.912 97.9911 807.728C97.6239 807.541 97.1806 807.448 96.6612 807.448H93.9478Z" fill="black"/>
</g>
<defs>
<filter id="filter0_d_515_58" x="161" y="-159" width="258.568" height="327.89" filterUnits="userSpaceOnUse" color-interpolation-filters="sRGB">
<feFlood flood-opacity="0" result="BackgroundImageFix"/>
<feColorMatrix in="SourceAlpha" type="matrix" values="0 0 0 0 0 0 0 0 0 0 0 0 0 0 0 0 0 0 127 0" result="hardAlpha"/>
<feOffset dx="10" dy="4"/>
<feGaussianBlur stdDeviation="2"/>
<feComposite in2="hardAlpha" operator="out"/>
<feColorMatrix type="matrix" values="0 0 0 0 0 0 0 0 0 0 0 0 0 0 0 0 0 0 0.25 0"/>
<feBlend mode="normal" in2="BackgroundImageFix" result="effect1_dropShadow_515_58"/>
<feBlend mode="normal" in="SourceGraphic" in2="effect1_dropShadow_515_58" result="shape"/>
</filter>
<filter id="filter1_d_515_58" x="7" y="108" width="258.568" height="327.89" filterUnits="userSpaceOnUse" color-interpolation-filters="sRGB">
<feFlood flood-opacity="0" result="BackgroundImageFix"/>
<feColorMatrix in="SourceAlpha" type="matrix" values="0 0 0 0 0 0 0 0 0 0 0 0 0 0 0 0 0 0 127 0" result="hardAlpha"/>
<feOffset dx="10" dy="4"/>
<feGaussianBlur stdDeviation="2"/>
<feComposite in2="hardAlpha" operator="out"/>
<feColorMatrix type="matrix" values="0 0 0 0 0 0 0 0 0 0 0 0 0 0 0 0 0 0 0.25 0"/>
<feBlend mode="normal" in2="BackgroundImageFix" result="effect1_dropShadow_515_58"/>
<feBlend mode="normal" in="SourceGraphic" in2="effect1_dropShadow_515_58" result="shape"/>
</filter>
<filter id="filter2_d_515_58" x="-147" y="375" width="258.568" height="327.89" filterUnits="userSpaceOnUse" color-interpolation-filters="sRGB">
<feFlood flood-opacity="0" result="BackgroundImageFix"/>
<feColorMatrix in="SourceAlpha" type="matrix" values="0 0 0 0 0 0 0 0 0 0 0 0 0 0 0 0 0 0 127 0" result="hardAlpha"/>
<feOffset dx="10" dy="4"/>
<feGaussianBlur stdDeviation="2"/>
<feComposite in2="hardAlpha" operator="out"/>
<feColorMatrix type="matrix" values="0 0 0 0 0 0 0 0 0 0 0 0 0 0 0 0 0 0 0.25 0"/>
<feBlend mode="normal" in2="BackgroundImageFix" result="effect1_dropShadow_515_58"/>
<feBlend mode="normal" in="SourceGraphic" in2="effect1_dropShadow_515_58" result="shape"/>
</filter>
<filter id="filter3_d_515_58" x="21.4316" y="-123.479" width="258.568" height="327.89" filterUnits="userSpaceOnUse" color-interpolation-filters="sRGB">
<feFlood flood-opacity="0" result="BackgroundImageFix"/>
<feColorMatrix in="SourceAlpha" type="matrix" values="0 0 0 0 0 0 0 0 0 0 0 0 0 0 0 0 0 0 127 0" result="hardAlpha"/>
<feOffset dx="10" dy="4"/>
<feGaussianBlur stdDeviation="2"/>
<feComposite in2="hardAlpha" operator="out"/>
<feColorMatrix type="matrix" values="0 0 0 0 0 0 0 0 0 0 0 0 0 0 0 0 0 0 0.25 0"/>
<feBlend mode="normal" in2="BackgroundImageFix" result="effect1_dropShadow_515_58"/>
<feBlend mode="normal" in="SourceGraphic" in2="effect1_dropShadow_515_58" result="shape"/>
</filter>
<filter id="filter4_d_515_58" x="-133.002" y="144.508" width="258.568" height="327.89" filterUnits="userSpaceOnUse" color-interpolation-filters="sRGB">
<feFlood flood-opacity="0" result="BackgroundImageFix"/>
<feColorMatrix in="SourceAlpha" type="matrix" values="0 0 0 0 0 0 0 0 0 0 0 0 0 0 0 0 0 0 127 0" result="hardAlpha"/>
<feOffset dx="10" dy="4"/>
<feGaussianBlur stdDeviation="2"/>
<feComposite in2="hardAlpha" operator="out"/>
<feColorMatrix type="matrix" values="0 0 0 0 0 0 0 0 0 0 0 0 0 0 0 0 0 0 0.25 0"/>
<feBlend mode="normal" in2="BackgroundImageFix" result="effect1_dropShadow_515_58"/>
<feBlend mode="normal" in="SourceGraphic" in2="effect1_dropShadow_515_58" result="shape"/>
</filter>
<filter id="filter5_d_515_58" x="-119.953" y="-86.3849" width="258.568" height="327.89" filterUnits="userSpaceOnUse" color-interpolation-filters="sRGB">
<feFlood flood-opacity="0" result="BackgroundImageFix"/>
<feColorMatrix in="SourceAlpha" type="matrix" values="0 0 0 0 0 0 0 0 0 0 0 0 0 0 0 0 0 0 127 0" result="hardAlpha"/>
<feOffset dx="10" dy="4"/>
<feGaussianBlur stdDeviation="2"/>
<feComposite in2="hardAlpha" operator="out"/>
<feColorMatrix type="matrix" values="0 0 0 0 0 0 0 0 0 0 0 0 0 0 0 0 0 0 0.25 0"/>
<feBlend mode="normal" in2="BackgroundImageFix" result="effect1_dropShadow_515_58"/>
<feBlend mode="normal" in="SourceGraphic" in2="effect1_dropShadow_515_58" result="shape"/>
</filter>
<filter id="filter6_d_515_58" x="178.811" y="624.813" width="269.617" height="275.317" filterUnits="userSpaceOnUse" color-interpolation-filters="sRGB">
<feFlood flood-opacity="0" result="BackgroundImageFix"/>
<feColorMatrix in="SourceAlpha" type="matrix" values="0 0 0 0 0 0 0 0 0 0 0 0 0 0 0 0 0 0 127 0" result="hardAlpha"/>
<feOffset dx="4" dy="4"/>
<feGaussianBlur stdDeviation="2"/>
<feComposite in2="hardAlpha" operator="out"/>
<feColorMatrix type="matrix" values="0 0 0 0 0 0 0 0 0 0 0 0 0 0 0 0 0 0 0.25 0"/>
<feBlend mode="normal" in2="BackgroundImageFix" result="effect1_dropShadow_515_58"/>
<feBlend mode="normal" in="SourceGraphic" in2="effect1_dropShadow_515_58" result="shape"/>
</filter>
<filter id="filter7_d_515_58" x="314" y="87" width="88" height="88" filterUnits="userSpaceOnUse" color-interpolation-filters="sRGB">
<feFlood flood-opacity="0" result="BackgroundImageFix"/>
<feColorMatrix in="SourceAlpha" type="matrix" values="0 0 0 0 0 0 0 0 0 0 0 0 0 0 0 0 0 0 127 0" result="hardAlpha"/>
<feOffset dx="4" dy="4"/>
<feGaussianBlur stdDeviation="2"/>
<feComposite in2="hardAlpha" operator="out"/>
<feColorMatrix type="matrix" values="0 0 0 0 0 0 0 0 0 0 0 0 0 0 0 0 0 0 0.25 0"/>
<feBlend mode="normal" in2="BackgroundImageFix" result="effect1_dropShadow_515_58"/>
<feBlend mode="normal" in="SourceGraphic" in2="effect1_dropShadow_515_58" result="shape"/>
</filter>
<filter id="filter8_d_515_58" x="367" y="162" width="79" height="79" filterUnits="userSpaceOnUse" color-interpolation-filters="sRGB">
<feFlood flood-opacity="0" result="BackgroundImageFix"/>
<feColorMatrix in="SourceAlpha" type="matrix" values="0 0 0 0 0 0 0 0 0 0 0 0 0 0 0 0 0 0 127 0" result="hardAlpha"/>
<feOffset dx="4" dy="4"/>
<feGaussianBlur stdDeviation="2"/>
<feComposite in2="hardAlpha" operator="out"/>
<feColorMatrix type="matrix" values="0 0 0 0 0 0 0 0 0 0 0 0 0 0 0 0 0 0 0.25 0"/>
<feBlend mode="normal" in2="BackgroundImageFix" result="effect1_dropShadow_515_58"/>
<feBlend mode="normal" in="SourceGraphic" in2="effect1_dropShadow_515_58" result="shape"/>
</filter>
<filter id="filter9_d_515_58" x="336" y="272" width="88" height="88" filterUnits="userSpaceOnUse" color-interpolation-filters="sRGB">
<feFlood flood-opacity="0" result="BackgroundImageFix"/>
<feColorMatrix in="SourceAlpha" type="matrix" values="0 0 0 0 0 0 0 0 0 0 0 0 0 0 0 0 0 0 127 0" result="hardAlpha"/>
<feOffset dx="4" dy="4"/>
<feGaussianBlur stdDeviation="2"/>
<feComposite in2="hardAlpha" operator="out"/>
<feColorMatrix type="matrix" values="0 0 0 0 0 0 0 0 0 0 0 0 0 0 0 0 0 0 0.25 0"/>
<feBlend mode="normal" in2="BackgroundImageFix" result="effect1_dropShadow_515_58"/>
<feBlend mode="normal" in="SourceGraphic" in2="effect1_dropShadow_515_58" result="shape"/>
</filter>
<filter id="filter10_d_515_58" x="335" y="514" width="89" height="89" filterUnits="userSpaceOnUse" color-interpolation-filters="sRGB">
<feFlood flood-opacity="0" result="BackgroundImageFix"/>
<feColorMatrix in="SourceAlpha" type="matrix" values="0 0 0 0 0 0 0 0 0 0 0 0 0 0 0 0 0 0 127 0" result="hardAlpha"/>
<feOffset dx="4" dy="4"/>
<feGaussianBlur stdDeviation="2"/>
<feComposite in2="hardAlpha" operator="out"/>
<feColorMatrix type="matrix" values="0 0 0 0 0 0 0 0 0 0 0 0 0 0 0 0 0 0 0.25 0"/>
<feBlend mode="normal" in2="BackgroundImageFix" result="effect1_dropShadow_515_58"/>
<feBlend mode="normal" in="SourceGraphic" in2="effect1_dropShadow_515_58" result="shape"/>
</filter>
<filter id="filter11_d_515_58" x="332.209" y="371.233" width="91.4316" height="86.8833" filterUnits="userSpaceOnUse" color-interpolation-filters="sRGB">
<feFlood flood-opacity="0" result="BackgroundImageFix"/>
<feColorMatrix in="SourceAlpha" type="matrix" values="0 0 0 0 0 0 0 0 0 0 0 0 0 0 0 0 0 0 127 0" result="hardAlpha"/>
<feOffset dx="4" dy="4"/>
<feGaussianBlur stdDeviation="2"/>
<feComposite in2="hardAlpha" operator="out"/>
<feColorMatrix type="matrix" values="0 0 0 0 0 0 0 0 0 0 0 0 0 0 0 0 0 0 0.25 0"/>
<feBlend mode="normal" in2="BackgroundImageFix" result="effect1_dropShadow_515_58"/>
<feBlend mode="normal" in="SourceGraphic" in2="effect1_dropShadow_515_58" result="shape"/>
</filter>
<filter id="filter12_d_515_58" x="296.02" y="191.849" width="89.5234" height="85.0314" filterUnits="userSpaceOnUse" color-interpolation-filters="sRGB">
<feFlood flood-opacity="0" result="BackgroundImageFix"/>
<feColorMatrix in="SourceAlpha" type="matrix" values="0 0 0 0 0 0 0 0 0 0 0 0 0 0 0 0 0 0 127 0" result="hardAlpha"/>
<feOffset dx="4" dy="4"/>
<feGaussianBlur stdDeviation="2"/>
<feComposite in2="hardAlpha" operator="out"/>
<feColorMatrix type="matrix" values="0 0 0 0 0 0 0 0 0 0 0 0 0 0 0 0 0 0 0.25 0"/>
<feBlend mode="normal" in2="BackgroundImageFix" result="effect1_dropShadow_515_58"/>
<feBlend mode="normal" in="SourceGraphic" in2="effect1_dropShadow_515_58" result="shape"/>
</filter>
<filter id="filter13_d_515_58" x="252.002" y="421.596" width="137.119" height="144.565" filterUnits="userSpaceOnUse" color-interpolation-filters="sRGB">
<feFlood flood-opacity="0" result="BackgroundImageFix"/>
<feColorMatrix in="SourceAlpha" type="matrix" values="0 0 0 0 0 0 0 0 0 0 0 0 0 0 0 0 0 0 127 0" result="hardAlpha"/>
<feOffset dx="4" dy="4"/>
<feGaussianBlur stdDeviation="2"/>
<feComposite in2="hardAlpha" operator="out"/>
<feColorMatrix type="matrix" values="0 0 0 0 0 0 0 0 0 0 0 0 0 0 0 0 0 0 0.25 0"/>
<feBlend mode="normal" in2="BackgroundImageFix" result="effect1_dropShadow_515_58"/>
<feBlend mode="normal" in="SourceGraphic" in2="effect1_dropShadow_515_58" result="shape"/>
</filter>
<filter id="filter14_d_515_58" x="249" y="190" width="78" height="78" filterUnits="userSpaceOnUse" color-interpolation-filters="sRGB">
<feFlood flood-opacity="0" result="BackgroundImageFix"/>
<feColorMatrix in="SourceAlpha" type="matrix" values="0 0 0 0 0 0 0 0 0 0 0 0 0 0 0 0 0 0 127 0" result="hardAlpha"/>
<feOffset dx="4" dy="4"/>
<feGaussianBlur stdDeviation="2"/>
<feComposite in2="hardAlpha" operator="out"/>
<feColorMatrix type="matrix" values="0 0 0 0 0 0 0 0 0 0 0 0 0 0 0 0 0 0 0.25 0"/>
<feBlend mode="normal" in2="BackgroundImageFix" result="effect1_dropShadow_515_58"/>
<feBlend mode="normal" in="SourceGraphic" in2="effect1_dropShadow_515_58" result="shape"/>
</filter>
<filter id="filter15_d_515_58" x="252.334" y="128.813" width="74.5742" height="74.5745" filterUnits="userSpaceOnUse" color-interpolation-filters="sRGB">
<feFlood flood-opacity="0" result="BackgroundImageFix"/>
<feColorMatrix in="SourceAlpha" type="matrix" values="0 0 0 0 0 0 0 0 0 0 0 0 0 0 0 0 0 0 127 0" result="hardAlpha"/>
<feOffset dx="4" dy="4"/>
<feGaussianBlur stdDeviation="2"/>
<feComposite in2="hardAlpha" operator="out"/>
<feColorMatrix type="matrix" values="0 0 0 0 0 0 0 0 0 0 0 0 0 0 0 0 0 0 0.25 0"/>
<feBlend mode="normal" in2="BackgroundImageFix" result="effect1_dropShadow_515_58"/>
<feBlend mode="normal" in="SourceGraphic" in2="effect1_dropShadow_515_58" result="shape"/>
</filter>
<filter id="filter16_d_515_58" x="289.74" y="1.33813" width="99.5547" height="104.893" filterUnits="userSpaceOnUse" color-interpolation-filters="sRGB">
<feFlood flood-opacity="0" result="BackgroundImageFix"/>
<feColorMatrix in="SourceAlpha" type="matrix" values="0 0 0 0 0 0 0 0 0 0 0 0 0 0 0 0 0 0 127 0" result="hardAlpha"/>
<feOffset dx="4" dy="4"/>
<feGaussianBlur stdDeviation="2"/>
<feComposite in2="hardAlpha" operator="out"/>
<feColorMatrix type="matrix" values="0 0 0 0 0 0 0 0 0 0 0 0 0 0 0 0 0 0 0.25 0"/>
<feBlend mode="normal" in2="BackgroundImageFix" result="effect1_dropShadow_515_58"/>
<feBlend mode="normal" in="SourceGraphic" in2="effect1_dropShadow_515_58" result="shape"/>
</filter>
<filter id="filter17_d_515_58" x="217.76" y="265.924" width="134.904" height="127.912" filterUnits="userSpaceOnUse" color-interpolation-filters="sRGB">
<feFlood flood-opacity="0" result="BackgroundImageFix"/>
<feColorMatrix in="SourceAlpha" type="matrix" values="0 0 0 0 0 0 0 0 0 0 0 0 0 0 0 0 0 0 127 0" result="hardAlpha"/>
<feOffset dx="4" dy="4"/>
<feGaussianBlur stdDeviation="2"/>
<feComposite in2="hardAlpha" operator="out"/>
<feColorMatrix type="matrix" values="0 0 0 0 0 0 0 0 0 0 0 0 0 0 0 0 0 0 0.25 0"/>
<feBlend mode="normal" in2="BackgroundImageFix" result="effect1_dropShadow_515_58"/>
<feBlend mode="normal" in="SourceGraphic" in2="effect1_dropShadow_515_58" result="shape"/>
</filter>
<filter id="filter18_d_515_58" x="206" y="388" width="121" height="121" filterUnits="userSpaceOnUse" color-interpolation-filters="sRGB">
<feFlood flood-opacity="0" result="BackgroundImageFix"/>
<feColorMatrix in="SourceAlpha" type="matrix" values="0 0 0 0 0 0 0 0 0 0 0 0 0 0 0 0 0 0 127 0" result="hardAlpha"/>
<feOffset dx="4" dy="4"/>
<feGaussianBlur stdDeviation="2"/>
<feComposite in2="hardAlpha" operator="out"/>
<feColorMatrix type="matrix" values="0 0 0 0 0 0 0 0 0 0 0 0 0 0 0 0 0 0 0.25 0"/>
<feBlend mode="normal" in2="BackgroundImageFix" result="effect1_dropShadow_515_58"/>
<feBlend mode="normal" in="SourceGraphic" in2="effect1_dropShadow_515_58" result="shape"/>
</filter>
<clipPath id="clip0_515_58">
<rect width="390" height="844" fill="white"/>
</clipPath>
</defs>
</svg>
