<svg width="617" height="451" viewBox="0 0 617 451" fill="none" xmlns="http://www.w3.org/2000/svg">
<rect x="146" y="56" width="457" height="381" rx="25" stroke="#6C95FF" stroke-width="27"/>
<rect x="465" width="80" height="56" rx="15" fill="#6C95FF"/>
<rect x="204" width="80" height="56" rx="15" fill="#6C95FF"/>
<rect x="146" y="62" width="449" height="85" fill="#6C95FF"/>
<rect x="419" y="337" width="75" height="75" fill="#6C95FF"/>
<path d="M432.56 396.199L478.199 350.56L480.717 353.078L435.078 398.717L432.56 396.199ZM432.56 353.078L435.078 350.56L480.717 396.199L478.199 398.717L432.56 353.078Z" fill="#D0DDFF"/>
<rect x="66.7246" y="157" width="356.27" height="133.448" transform="rotate(30 66.7246 157)" fill="#D0DDFF"/>
<path d="M70.6324 166.807L66.083 174.687L63.9392 173.449L68.4886 165.569L70.6324 166.807Z" fill="#6C95FF"/>
<path d="M78.4806 171.338L73.9313 179.218L72.1422 178.185L71.6792 172.398L71.6329 172.371L69.2427 176.511L67.099 175.273L71.6483 167.394L73.4682 168.444L73.8939 174.189L73.9556 174.225L76.3369 170.101L78.4806 171.338Z" fill="#6C95FF"/>
<path d="M81.6539 173.17L80.0656 179.661L80.1273 179.697L84.9544 175.076L87.3758 176.474L80.2199 182.849L77.2896 181.157L79.2325 171.772L81.6539 173.17Z" fill="#6C95FF"/>
<path d="M93.013 184.982C92.5065 185.859 91.9083 186.5 91.2184 186.906C90.53 187.308 89.8058 187.497 89.0457 187.472C88.287 187.445 87.5504 187.225 86.8358 186.812C86.1161 186.397 85.5554 185.866 85.1536 185.22C84.7559 184.573 84.5594 183.851 84.5641 183.053C84.5728 182.255 84.8289 181.419 85.3324 180.547C85.8389 179.67 86.435 179.029 87.1209 178.625C87.8108 178.22 88.5337 178.03 89.2898 178.056C90.0499 178.081 90.7899 178.301 91.5096 178.717C92.2242 179.129 92.7823 179.659 93.1841 180.304C93.5873 180.948 93.7858 181.669 93.7797 182.469C93.775 183.267 93.5195 184.104 93.013 184.982ZM90.8075 183.708C91.08 183.236 91.2466 182.802 91.3072 182.407C91.3719 182.01 91.3303 181.657 91.1824 181.349C91.0385 181.041 90.7892 180.784 90.4344 180.579C90.0797 180.374 89.7314 180.286 89.3894 180.314C89.0516 180.342 88.7256 180.482 88.4116 180.735C88.1016 180.987 87.8104 181.349 87.5379 181.821C87.2654 182.293 87.0968 182.727 87.0321 183.124C86.9715 183.52 87.0131 183.872 87.157 184.181C87.3049 184.489 87.5562 184.745 87.911 184.95C88.2657 185.155 88.612 185.243 88.9499 185.216C89.2918 185.188 89.6178 185.048 89.9277 184.796C90.2418 184.543 90.535 184.18 90.8075 183.708Z" fill="#6C95FF"/>
<path d="M98.4233 182.852L93.874 190.732L91.7302 189.494L96.2795 181.614L98.4233 182.852Z" fill="#6C95FF"/>
<path d="M105.105 190.65L102.931 189.394C103.019 189.206 103.072 189.019 103.09 188.835C103.11 188.651 103.092 188.474 103.037 188.302C102.986 188.129 102.896 187.967 102.767 187.817C102.639 187.665 102.472 187.529 102.267 187.41C101.907 187.203 101.552 187.114 101.202 187.144C100.854 187.176 100.522 187.318 100.206 187.57C99.8917 187.823 99.6028 188.178 99.3392 188.634C99.0608 189.116 98.8918 189.557 98.8323 189.957C98.7768 190.356 98.825 190.709 98.977 191.016C99.1305 191.32 99.3807 191.572 99.7277 191.772C99.9257 191.887 100.117 191.965 100.302 192.006C100.488 192.046 100.667 192.051 100.837 192.023C101.008 191.995 101.168 191.935 101.317 191.843C101.47 191.75 101.608 191.627 101.731 191.472L103.897 192.743C103.679 193.062 103.389 193.347 103.027 193.6C102.666 193.85 102.253 194.036 101.786 194.156C101.323 194.275 100.822 194.297 100.283 194.222C99.7434 194.146 99.1847 193.942 98.6063 193.608C97.8815 193.189 97.3207 192.659 96.9241 192.016C96.5301 191.375 96.34 190.656 96.3539 189.86C96.3703 189.066 96.6303 188.233 97.1338 187.361C97.6402 186.484 98.2364 185.843 98.9222 185.438C99.6095 185.032 100.33 184.84 101.083 184.865C101.838 184.887 102.571 185.103 103.28 185.513C103.779 185.801 104.198 186.133 104.539 186.511C104.879 186.889 105.132 187.3 105.297 187.744C105.464 188.186 105.534 188.652 105.508 189.143C105.481 189.634 105.347 190.136 105.105 190.65Z" fill="#6C95FF"/>
<path d="M103.235 196.136L107.784 188.257L113.475 191.542L112.48 193.266L108.933 191.218L108.151 192.572L111.405 194.451L110.41 196.175L107.156 194.296L106.374 195.65L109.905 197.689L108.91 199.413L103.235 196.136Z" fill="#6C95FF"/>
<rect x="57.3418" y="173.252" width="346.867" height="9.38307" transform="rotate(30 57.3418 173.252)" fill="#6C95FF"/>
<rect x="51.6074" y="183.184" width="346.867" height="2.08513" transform="rotate(30 51.6074 183.184)" fill="#6C95FF"/>
<path d="M81.2986 220.792L76.197 229.628L71.2701 226.783L76.3717 217.947L81.2986 220.792ZM52.0503 270.02L47.3168 278.219L42.39 275.374L47.1234 267.175L52.0503 270.02ZM59.9818 261.077C60.6246 259.963 60.9808 258.941 61.0504 258.009C61.1199 257.078 60.92 256.112 60.4506 255.112C59.9812 254.113 59.2535 252.964 58.2676 251.666C56.1513 248.986 54.3727 246.461 52.9318 244.091C51.5116 241.733 50.6991 239.347 50.4944 236.935C50.3103 234.534 51.0131 231.957 52.6026 229.204C54.0518 226.694 55.9441 224.872 58.2795 223.737C60.6355 222.614 63.2212 222.19 66.0366 222.466C68.8844 222.734 71.775 223.714 74.7083 225.408C76.9394 226.696 78.7872 228.195 80.2517 229.904C81.7162 231.613 82.7634 233.473 83.3932 235.483C84.0347 237.473 84.2027 239.567 83.8972 241.766C83.6034 243.945 82.8079 246.157 81.5106 248.404L71.0681 242.376C71.7343 241.222 72.183 240.158 72.4143 239.185C72.6663 238.224 72.7273 237.355 72.5974 236.578C72.4674 235.801 72.1834 235.125 71.7452 234.548C71.3187 233.951 70.7646 233.455 70.0829 233.062C69.0501 232.465 68.0849 232.205 67.1873 232.281C66.3015 232.336 65.5095 232.634 64.8112 233.176C64.1129 233.717 63.5125 234.423 63.0099 235.294C62.484 236.205 62.1773 237.094 62.0898 237.961C62.0346 238.82 62.2301 239.77 62.6761 240.81C63.1338 241.83 63.8691 243.037 64.8819 244.432C66.9246 247.095 68.6547 249.633 70.0722 252.044C71.4897 254.455 72.295 256.876 72.488 259.309C72.7134 261.733 72.0371 264.312 70.4593 267.045C68.9399 269.677 67.0126 271.56 64.6772 272.695C62.3535 273.809 59.7853 274.202 56.9726 273.874C54.16 273.546 51.2766 272.529 48.3225 270.823C46.3394 269.678 44.5127 268.286 42.8424 266.647C41.1928 265.02 39.8896 263.174 38.9328 261.11C38.0083 259.038 37.6203 256.776 37.7686 254.325C37.917 251.873 38.7918 249.261 40.393 246.488L50.8354 252.517C50.0524 253.873 49.5631 255.102 49.3677 256.204C49.1723 257.305 49.1957 258.291 49.4379 259.159C49.7124 260.02 50.1411 260.78 50.7238 261.44C51.3183 262.08 52.008 262.627 52.793 263.08C53.8466 263.688 54.8207 263.981 55.7155 263.958C56.622 263.914 57.4289 263.638 58.1361 263.129C58.8757 262.611 59.4909 261.927 59.9818 261.077Z" fill="#6C95FF"/>
<rect x="105.178" y="234.578" width="198.508" height="12.5108" transform="rotate(30 105.178 234.578)" fill="#6C95FF"/>
<rect x="92.666" y="256.247" width="142.09" height="9.38307" transform="rotate(30 92.666 256.247)" fill="#6C95FF"/>
<rect x="281.867" y="411.229" width="33.4329" height="15.6385" transform="rotate(30 281.867 411.229)" fill="#ACBEEB"/>
</svg>
