<svg width="381" height="466" viewBox="0 0 381 466" fill="none" xmlns="http://www.w3.org/2000/svg">
<rect width="381" height="466" rx="38" fill="#6C95FF"/>
<rect x="21" y="29" width="340" height="416" fill="#D0DDFF"/>
<rect x="147" y="15" width="87" height="29" fill="#ACBEEB"/>
<rect x="65.5" y="94.5" width="53" height="53" rx="12.5" stroke="#6C95FF" stroke-width="7"/>
<path d="M91.0591 132.705L71.6197 113.114L65 119.738L91.0591 146L147 89.6242L140.427 83L91.0591 132.705Z" fill="#6C95FF"/>
<rect x="65.5" y="326.5" width="53" height="53" rx="12.5" stroke="#6C95FF" stroke-width="7"/>
<path d="M91.0591 364.705L71.6197 345.114L65 351.738L91.0591 378L147 321.624L140.427 315L91.0591 364.705Z" fill="#6C95FF"/>
<rect x="65.5" y="210.5" width="53" height="53" rx="12.5" stroke="#6C95FF" stroke-width="7"/>
<path d="M91.0591 248.705L71.6197 229.114L65 235.738L91.0591 262L147 205.624L140.427 199L91.0591 248.705Z" fill="#6C95FF"/>
<rect x="149" y="104" width="170" height="34" rx="9" fill="white"/>
<rect x="149" y="220" width="170" height="34" rx="9" fill="white"/>
<rect x="149" y="336" width="170" height="34" rx="9" fill="white"/>
</svg>
