<svg width="414" height="374" viewBox="0 0 414 374" fill="none" xmlns="http://www.w3.org/2000/svg">
<path d="M0 167.062C0 212.867 36.2764 250 81.0257 250H193.989H332.974C377.724 250 414 212.867 414 167.062C414 121.256 377.724 84.1232 332.974 84.1232C325.077 84.1232 317.443 85.2798 310.226 87.4366C294.682 36.7555 248.519 0 193.989 0C140.643 0 95.3048 35.176 78.8074 84.1537C35.0837 85.3567 0 122.015 0 167.062Z" fill="white"/>
<path d="M335 123.1H291.727V227H335V123.1Z" fill="#ACBEEB"/>
<path d="M293.536 103H250L291.464 123.1H335L293.536 103Z" fill="#D0DDFF"/>
<path d="M291.728 122.945L250 103L250 206.912L291.728 226.928V122.945Z" fill="#6C95FF"/>
<path d="M298.528 135.314C298.528 134.033 299.565 132.995 300.846 132.995H325.573C326.853 132.995 327.891 134.033 327.891 135.314C327.891 136.595 326.853 137.633 325.573 137.633H300.846C299.565 137.633 298.528 136.595 298.528 135.314Z" fill="white"/>
<path d="M298.528 143.045C298.528 141.764 299.565 140.726 300.846 140.726H325.573C326.853 140.726 327.891 141.764 327.891 143.045C327.891 144.326 326.853 145.364 325.573 145.364H300.846C299.565 145.364 298.528 144.326 298.528 143.045Z" fill="white"/>
<path d="M298.528 150.776C298.528 149.495 299.565 148.456 300.846 148.456H325.573C326.853 148.456 327.891 149.495 327.891 150.776C327.891 152.056 326.853 153.095 325.573 153.095H300.846C299.565 153.095 298.528 152.056 298.528 150.776Z" fill="white"/>
<path d="M326.345 143.045C326.345 143.643 325.861 144.127 325.263 144.127C324.666 144.127 324.181 143.643 324.181 143.045C324.181 142.447 324.666 141.963 325.263 141.963C325.861 141.963 326.345 142.447 326.345 143.045Z" fill="#6C95FF"/>
<path d="M326.345 150.776C326.345 151.373 325.861 151.858 325.263 151.858C324.666 151.858 324.181 151.373 324.181 150.776C324.181 150.178 324.666 149.693 325.263 149.693C325.861 149.693 326.345 150.178 326.345 150.776Z" fill="#6C95FF"/>
<path d="M326.345 135.314C326.345 135.912 325.861 136.397 325.263 136.397C324.666 136.397 324.181 135.912 324.181 135.314C324.181 134.716 324.666 134.232 325.263 134.232C325.861 134.232 326.345 134.716 326.345 135.314Z" fill="#6C95FF"/>
<path d="M270.185 80.8254H205.945V235H270.185V80.8254Z" fill="#ACBEEB"/>
<path d="M208.631 51H144L205.554 80.8254H270.185L208.631 51Z" fill="#D0DDFF"/>
<path d="M205.946 80.596L144 51L144.001 205.191L205.946 234.894V80.596Z" fill="#6C95FF"/>
<path d="M216.04 98.9501C216.04 97.0495 217.581 95.5087 219.482 95.5087H256.19C258.091 95.5087 259.631 97.0495 259.631 98.9501C259.631 100.851 258.091 102.392 256.19 102.392H219.482C217.581 102.392 216.04 100.851 216.04 98.9501Z" fill="white"/>
<path d="M216.04 110.421C216.04 108.521 217.581 106.98 219.482 106.98H256.19C258.091 106.98 259.631 108.521 259.631 110.421C259.631 112.322 258.091 113.863 256.19 113.863H219.482C217.581 113.863 216.04 112.322 216.04 110.421Z" fill="white"/>
<path d="M216.04 121.893C216.04 119.992 217.581 118.451 219.482 118.451H256.19C258.091 118.451 259.631 119.992 259.631 121.893C259.631 123.793 258.091 125.334 256.19 125.334H219.482C217.581 125.334 216.04 123.793 216.04 121.893Z" fill="white"/>
<path d="M257.336 110.421C257.336 111.308 256.617 112.027 255.73 112.027C254.843 112.027 254.124 111.308 254.124 110.421C254.124 109.534 254.843 108.815 255.73 108.815C256.617 108.815 257.336 109.534 257.336 110.421Z" fill="#6C95FF"/>
<path d="M257.336 121.893C257.336 122.78 256.617 123.499 255.73 123.499C254.843 123.499 254.124 122.78 254.124 121.893C254.124 121.006 254.843 120.287 255.73 120.287C256.617 120.287 257.336 121.006 257.336 121.893Z" fill="#6C95FF"/>
<path d="M257.336 98.9501C257.336 99.8371 256.617 100.556 255.73 100.556C254.843 100.556 254.124 99.8371 254.124 98.9501C254.124 98.0632 254.843 97.3441 255.73 97.3441C256.617 97.3441 257.336 98.0632 257.336 98.9501Z" fill="#6C95FF"/>
<path d="M180 118.586H135.709V225H180V118.586Z" fill="#ACBEEB"/>
<path d="M137.561 98H93L135.439 118.586H180L137.561 98Z" fill="#D0DDFF"/>
<path d="M135.71 118.428L93 98L93.0005 204.426L135.71 224.927V118.428Z" fill="#6C95FF"/>
<path d="M142.669 131.096C142.669 129.784 143.732 128.721 145.042 128.721H170.351C171.662 128.721 172.724 129.784 172.724 131.096C172.724 132.408 171.662 133.471 170.351 133.471H145.042C143.732 133.471 142.669 132.408 142.669 131.096Z" fill="white"/>
<path d="M142.669 139.014C142.669 137.702 143.732 136.638 145.042 136.638H170.351C171.662 136.638 172.724 137.702 172.724 139.014C172.724 140.326 171.662 141.389 170.351 141.389H145.042C143.732 141.389 142.669 140.326 142.669 139.014Z" fill="white"/>
<path d="M142.669 146.931C142.669 145.62 143.732 144.556 145.042 144.556H170.351C171.662 144.556 172.724 145.62 172.724 146.931C172.724 148.243 171.662 149.307 170.351 149.307H145.042C143.732 149.307 142.669 148.243 142.669 146.931Z" fill="white"/>
<path d="M171.141 139.014C171.141 139.626 170.646 140.122 170.034 140.122C169.423 140.122 168.927 139.626 168.927 139.014C168.927 138.402 169.423 137.905 170.034 137.905C170.646 137.905 171.141 138.402 171.141 139.014Z" fill="#6C95FF"/>
<path d="M171.141 146.931C171.141 147.544 170.646 148.04 170.034 148.04C169.423 148.04 168.927 147.544 168.927 146.931C168.927 146.319 169.423 145.823 170.034 145.823C170.646 145.823 171.141 146.319 171.141 146.931Z" fill="#6C95FF"/>
<path d="M171.141 131.096C171.141 131.708 170.646 132.204 170.034 132.204C169.423 132.204 168.927 131.708 168.927 131.096C168.927 130.484 169.423 129.988 170.034 129.988C170.646 129.988 171.141 130.484 171.141 131.096Z" fill="#6C95FF"/>
<path d="M66.1299 369.297L86.9997 334.326L70.6361 306.11L66.1299 369.297Z" fill="#D0DDFF"/>
<path d="M66.1299 369.297L95.1069 346.526L86.9997 334.326L66.1299 369.297Z" fill="#ACBEEB"/>
<path d="M241 227L86.9997 334.326L70.6361 306.11L241 227Z" fill="#D0DDFF"/>
<path d="M241 227L113.364 374L86.9997 334.326L241 227Z" fill="#6C95FF"/>
<path d="M241 227L70.6361 306.11L47 278.379L241 227Z" fill="#6C95FF"/>
</svg>
