<svg width="355" height="404" viewBox="0 0 355 404" fill="none" xmlns="http://www.w3.org/2000/svg">
<path d="M50 0H297V58H355V373H50V0Z" fill="#D0DDFF"/>
<path d="M297 0V58H355L297 0Z" fill="#6C95FF"/>
<path d="M335 352H158.673H70L135.231 229.265L171.923 290.633L236.899 166L335 352Z" fill="#6C95FF"/>
<circle cx="130" cy="103" r="45" fill="#6C95FF"/>
<path d="M32.0189 69.7763L43.8191 66.6251L45.1742 71.6653L33.374 74.8166L32.0189 69.7763Z" fill="#6C95FF"/>
<path fill-rule="evenodd" clip-rule="evenodd" d="M103.028 364.137L26.2398 78.5224L29.6113 77.6221L29.1596 75.942L33.374 74.8166L45.1742 71.6653L49.3886 70.5399L49.8403 72.22L53.2118 71.3196L54.1152 74.6798L57.4867 73.7794L57.035 72.0993L62.0923 70.7488L91.0007 178.274L85.9435 179.625L64.7138 100.661L61.3423 101.561L130 356.934L103.028 364.137Z" fill="#2E3573"/>
<path fill-rule="evenodd" clip-rule="evenodd" d="M103.028 364.137L130 356.934L128.684 398.702L125.217 399.627L103.028 364.137Z" fill="#D0DDFF"/>
<path d="M125.217 399.627L127.72 403.788C127.944 404.16 128.517 404.012 128.531 403.578L128.684 398.702L125.217 399.627Z" fill="#6C95FF"/>
<path d="M0.436406 90.178H28.3599L28.7962 89.3083V84.9599L27.4873 83.2206L28.7962 81.4812V78.0025L27.4873 76.2632L28.7962 74.5238V71.0451L27.4873 69.3058L28.7962 67.5664L28.7961 62.3484H28.6303H0.165796H0L0.000102255 67.5664L1.30901 69.3058L0.000102255 71.0451V74.5238L1.30901 76.2632L0.000102255 78.0025V81.4812L1.30901 83.2206L0.000102255 84.9599V89.3083L0.436406 90.178Z" fill="#81C3FF"/>
<path d="M0.165796 58V62.3484H28.6303V58H0.165796Z" fill="#6C95FF"/>
<path d="M28.3599 90.178H0.436406V358.038L2.18162 358.908L3.92684 358.038L5.67206 358.908L7.41727 358.038L9.16249 358.908L10.9077 358.038L12.6529 358.908L14.3981 358.038L16.1434 358.908L17.8886 358.038L19.6338 358.908L21.379 358.038L23.1242 358.908L24.8694 358.038L26.6147 358.908L28.3599 358.038V90.178Z" fill="#6C95FF"/>
<path d="M2.18162 358.908L0.436406 358.038L11.9343 394.564H16.862L28.3599 358.038L26.6147 358.908L24.8694 358.038L23.1242 358.908L21.379 358.038L19.6338 358.908L17.8886 358.038L16.1434 358.908L14.3981 358.038L12.6529 358.908L10.9077 358.038L9.16249 358.908L7.41727 358.038L5.67206 358.908L3.92684 358.038L2.18162 358.908Z" fill="#D0DDFF"/>
<path d="M11.9343 394.564L14.3981 402.391L16.862 394.564H11.9343Z" fill="#6C95FF"/>
</svg>
