<svg width="378" height="533" viewBox="0 0 378 533" fill="none" xmlns="http://www.w3.org/2000/svg">
<path d="M378 294C378 282.43 373.208 271.98 365.5 264.525C358.123 257.39 348.074 253 337 253H139C127.683 253 117.436 257.586 110.017 265C102.593 272.42 98 282.674 98 294V492C98 502.8 102.175 512.624 109 519.947C116.485 527.978 127.156 533 139 533H337C359.644 533 378 514.644 378 492V294Z" fill="#ACBEEB"/>
<path d="M337 253H139C127.683 253 117.436 257.586 110.017 265L50.0172 205C57.4361 197.586 67.6825 193 79 193H277C288.074 193 298.123 197.39 305.5 204.525L365.5 264.525C358.123 257.39 348.074 253 337 253Z" fill="#D0DDFF"/>
<path d="M98 294V492C98 502.8 102.175 512.624 109 519.947L49 459.947C42.1754 452.624 38 442.8 38 432V234C38 222.674 42.5926 212.42 50.0172 205L110.017 265C102.593 272.42 98 282.674 98 294Z" fill="#6C95FF"/>
<path d="M274.07 217.442H144.308V236H274.07V217.442Z" fill="#ACBEEB"/>
<path d="M332 166.279H296.189H87.4321H86.3788L126.929 202.093L144.308 217.442H274.07L332 166.279Z" fill="#ACBEEB"/>
<path d="M296.189 166.279L314.621 150L332 166.279H296.189Z" fill="#D0DDFF"/>
<path d="M69 150H314.621L296.189 166.279H87.4321H86.3788L69 150Z" fill="#D0DDFF"/>
<path d="M144.308 217.442V236L126.929 219.721V202.093L144.308 217.442Z" fill="#6C95FF"/>
<path d="M301 351V434C301 439.797 298.758 445.07 295.094 449L280.094 434V329.027C291.736 329.597 301 339.216 301 351Z" fill="#6C95FF"/>
<path d="M279 456H196C183.85 456 174 446.15 174 434H280.094L295.094 449C291.078 453.307 285.353 456 279 456Z" fill="#D0DDFF"/>
<path d="M196 329H279C279.367 329 279.731 329.009 280.094 329.027V434H174V351C174 338.85 183.85 329 196 329Z" fill="#2F3676"/>
<g filter="url(#filter0_d_426_452)">
<rect x="193" y="348" width="80" height="98" fill="white"/>
</g>
<path d="M199 401.786V394.739L220.992 385.989V393.388L206.981 398.204L207.217 397.852V398.674L206.981 398.321L220.992 403.137V410.537L199 401.786Z" fill="#6C95FF"/>
<path d="M241.336 379L231.581 415H224.664L234.419 379H241.336Z" fill="#6C95FF"/>
<path d="M267 401.786L245.008 410.537V403.137L259.019 398.321L258.783 398.674V397.852L259.019 398.204L245.008 393.388V385.989L267 394.739V401.786Z" fill="#6C95FF"/>
<path d="M35.3882 26.8573L7.80433 54.4412L0.324135 46.961L27.908 19.3771L35.3882 26.8573Z" fill="#6C95FF"/>
<path d="M21.9508 68.5877L11.3493 57.9862L38.9332 30.4023L49.427 40.8961C52.2613 43.7303 54.1576 46.7311 55.116 49.8984C56.0924 53.0657 56.1086 56.2426 55.1645 59.4289C54.2384 62.6152 52.3387 65.645 49.4654 68.5184C46.592 71.3917 43.5622 73.3004 40.3759 74.2444C37.1985 75.1795 34.0307 75.1723 30.8723 74.2229C27.723 73.2644 24.7491 71.386 21.9508 68.5877ZM25.1868 59.1092L28.0389 61.9614C29.4022 63.3246 30.7837 64.2662 32.1834 64.7859C33.592 65.3145 35.0862 65.2913 36.666 64.716C38.2547 64.1498 40.0098 62.9059 41.9314 60.9844C43.8529 59.0628 45.0923 57.3032 45.6496 55.7055C46.2159 54.1168 46.2212 52.6046 45.6656 51.1691C45.119 49.7425 44.1282 48.3117 42.6931 46.8767L40.0562 44.2397L25.1868 59.1092Z" fill="#6C95FF"/>
<path d="M39.1344 85.7712L66.7182 58.1873L86.5757 78.0448L80.5418 84.0788L68.1645 71.7015L63.4235 76.4425L74.7783 87.7973L68.7443 93.8313L57.3895 82.4765L52.6485 87.2175L64.972 99.5409L58.938 105.575L39.1344 85.7712Z" fill="#6C95FF"/>
<path d="M69.859 116.496L61.7868 108.424L98.4653 89.9344L108.69 100.159L90.2008 136.838L82.1286 128.766L96.089 102.751L95.8737 102.536L69.859 116.496ZM79.2349 104.106L94.4105 119.282L88.8075 124.885L73.6319 109.709L79.2349 104.106Z" fill="#6C95FF"/>
<path d="M125.598 134.307C126.424 133.338 126.788 132.301 126.69 131.197C126.601 130.102 125.951 128.95 124.74 127.739C123.969 126.967 123.242 126.429 122.561 126.125C121.897 125.82 121.291 125.708 120.744 125.789C120.196 125.87 119.716 126.108 119.303 126.503C118.953 126.818 118.71 127.177 118.575 127.581C118.458 127.985 118.445 128.447 118.534 128.967C118.633 129.479 118.834 130.057 119.139 130.703C119.444 131.349 119.856 132.067 120.376 132.856L122.151 135.601C123.353 137.449 124.231 139.181 124.787 140.796C125.342 142.411 125.606 143.923 125.579 145.332C125.56 146.732 125.267 148.038 124.701 149.25C124.144 150.47 123.345 151.611 122.303 152.67C120.481 154.475 118.492 155.557 116.338 155.918C114.184 156.278 111.945 155.951 109.622 154.939C107.307 153.935 104.984 152.267 102.652 149.935C100.257 147.54 98.5219 145.096 97.4464 142.602C96.3798 140.116 96.0896 137.644 96.5756 135.185C97.0795 132.726 98.4808 130.338 100.779 128.021L107.883 135.125C107.084 136.014 106.585 136.934 106.387 137.885C106.189 138.837 106.283 139.801 106.668 140.779C107.063 141.766 107.735 142.735 108.686 143.686C109.484 144.484 110.251 145.053 110.987 145.394C111.722 145.735 112.404 145.869 113.033 145.797C113.661 145.725 114.204 145.468 114.662 145.028C115.075 144.598 115.304 144.09 115.349 143.507C115.412 142.924 115.269 142.206 114.92 141.353C114.579 140.492 114.01 139.438 113.212 138.191L111.06 134.854C109.15 131.885 108.111 129.076 107.942 126.429C107.791 123.782 108.797 121.385 110.961 119.239C112.703 117.479 114.7 116.415 116.953 116.045C119.224 115.676 121.566 115.962 123.979 116.903C126.402 117.853 128.703 119.418 130.882 121.597C133.106 123.821 134.658 126.118 135.536 128.486C136.414 130.855 136.615 133.157 136.138 135.392C135.679 137.627 134.551 139.651 132.756 141.465L125.598 134.307Z" fill="#6C95FF"/>
<path d="M102.434 22.2531L92.3372 59.9334L82.1191 57.1955L92.2155 19.5152L102.434 22.2531Z" fill="#6C95FF"/>
<path d="M111.662 65.1114L97.1798 61.231L107.276 23.5507L121.611 27.3917C125.483 28.4291 128.625 30.0796 131.039 32.3434C133.468 34.5982 135.071 37.3413 135.846 40.5728C136.637 43.7953 136.507 47.369 135.455 51.294C134.404 55.2191 132.734 58.387 130.447 60.7977C128.162 63.1962 125.415 64.7739 122.206 65.5308C118.999 66.2754 115.484 66.1356 111.662 65.1114ZM109.725 55.2848L113.621 56.3287C115.483 56.8277 117.15 56.9524 118.622 56.7026C120.107 56.4562 121.389 55.6889 122.47 54.4009C123.562 53.1161 124.46 51.1613 125.164 48.5364C125.867 45.9115 126.061 43.768 125.744 42.1057C125.44 40.4467 124.689 39.1344 123.49 38.169C122.303 37.2069 120.73 36.4632 118.769 35.9379L115.167 34.9727L109.725 55.2848Z" fill="#6C95FF"/>
<path d="M135.135 71.401L145.231 33.7207L172.357 40.989L170.148 49.2316L153.241 44.7012L151.505 51.1775L167.016 55.3336L164.808 63.5762L149.297 59.4201L147.562 65.8964L164.396 70.4071L162.187 78.6496L135.135 71.401Z" fill="#6C95FF"/>
<path d="M177.105 82.647L166.079 79.6924L188.599 45.3409L202.566 49.0834L204.893 90.0926L193.866 87.138L192.949 57.6284L192.655 57.5496L177.105 82.647ZM179.03 67.2294L199.761 72.7841L197.71 80.4379L176.98 74.8832L179.03 67.2294Z" fill="#6C95FF"/>
<path d="M234.283 70.2025C234.513 68.9497 234.31 67.8698 233.673 66.963C233.049 66.0594 231.91 65.3861 230.256 64.9429C229.202 64.6605 228.304 64.5579 227.561 64.6349C226.833 64.7029 226.253 64.9089 225.819 65.2529C225.386 65.5968 225.089 66.0431 224.929 66.5918C224.783 67.0391 224.752 67.4713 224.837 67.8885C224.938 68.2968 225.157 68.7039 225.495 69.1099C225.836 69.5036 226.3 69.904 226.887 70.311C227.474 70.7181 228.19 71.1334 229.035 71.557L231.945 73.0467C233.909 74.0464 235.536 75.1066 236.825 76.2275C238.113 77.3485 239.098 78.5259 239.778 79.76C240.462 80.9817 240.862 82.2589 240.977 83.5914C241.105 84.9271 240.983 86.3142 240.611 87.7526C239.935 90.227 238.754 92.1586 237.069 93.5475C235.383 94.9365 233.281 95.7733 230.762 96.0581C228.256 96.3461 225.41 96.0634 222.224 95.2098C218.953 94.3333 216.228 93.0839 214.05 91.4616C211.883 89.8426 210.396 87.8467 209.587 85.474C208.794 83.0924 208.814 80.3237 209.646 77.1682L219.35 79.7682C219.102 80.9376 219.13 81.9838 219.435 82.9066C219.739 83.8295 220.302 84.6181 221.125 85.2724C221.96 85.9299 223.027 86.4327 224.325 86.7807C225.416 87.0729 226.365 87.1825 227.172 87.1096C227.98 87.0368 228.637 86.812 229.145 86.4355C229.653 86.0589 229.996 85.5656 230.172 84.9556C230.314 84.3758 230.259 83.822 230.007 83.2942C229.77 82.7574 229.287 82.2074 228.558 81.644C227.832 81.0683 226.812 80.44 225.498 79.7591L221.966 77.945C218.827 76.3284 216.523 74.416 215.053 72.208C213.598 69.9909 213.271 67.4121 214.072 64.4716C214.701 62.0765 215.899 60.1559 217.665 58.7098C219.447 57.2548 221.618 56.3313 224.178 55.9394C226.751 55.5508 229.526 55.7554 232.504 56.5531C235.542 57.3673 238.034 58.5805 239.979 60.1927C241.923 61.805 243.248 63.6981 243.952 65.8719C244.672 68.0368 244.708 70.3536 244.06 72.8222L234.283 70.2025Z" fill="#6C95FF"/>
<path d="M344.054 20.4329L306.373 10.3365L309.111 0.118324L346.791 10.2147L344.054 20.4329Z" fill="#6C95FF"/>
<path d="M301.195 29.6609L305.076 15.179L342.756 25.2754L338.915 39.6102C337.878 43.4819 336.227 46.6245 333.963 49.0382C331.708 51.4674 328.965 53.0699 325.734 53.8454C322.511 54.6366 318.938 54.5063 315.013 53.4545C311.088 52.4028 307.92 50.7333 305.509 48.4459C303.11 46.1617 301.533 43.4147 300.776 40.2048C300.031 36.9981 300.171 33.4835 301.195 29.6609ZM311.022 27.7241L309.978 31.6202C309.479 33.4825 309.354 35.1496 309.604 36.6216C309.85 38.1059 310.618 39.3883 311.906 40.4688C313.191 41.5615 315.145 42.4596 317.77 43.1629C320.395 43.8662 322.539 44.0598 324.201 43.7436C325.86 43.4396 327.172 42.6881 328.138 41.4892C329.1 40.3026 329.843 38.7291 330.369 36.7687L331.334 33.1667L311.022 27.7241Z" fill="#6C95FF"/>
<path d="M294.906 53.1341L332.586 63.2305L325.318 90.3563L317.075 88.1477L321.605 71.24L315.129 69.5047L310.973 85.0157L302.73 82.8071L306.887 67.2961L300.41 65.5608L295.9 82.395L287.657 80.1864L294.906 53.1341Z" fill="#6C95FF"/>
<path d="M283.66 95.1047L286.614 84.0779L320.966 106.598L317.223 120.565L276.214 122.892L279.169 111.865L308.678 110.948L308.757 110.654L283.66 95.1047ZM299.077 97.0297L293.523 117.76L285.869 115.709L291.423 94.9789L299.077 97.0297Z" fill="#6C95FF"/>
<path d="M296.104 152.282C297.357 152.513 298.437 152.31 299.344 151.673C300.247 151.048 300.921 149.909 301.364 148.255C301.646 147.201 301.749 146.303 301.672 145.56C301.604 144.833 301.398 144.252 301.054 143.819C300.71 143.385 300.264 143.088 299.715 142.928C299.268 142.782 298.835 142.751 298.418 142.837C298.01 142.937 297.603 143.157 297.197 143.494C296.803 143.835 296.403 144.299 295.996 144.886C295.589 145.473 295.173 146.189 294.75 147.034L293.26 149.944C292.26 151.909 291.2 153.535 290.079 154.824C288.958 156.112 287.781 157.097 286.547 157.777C285.325 158.461 284.048 158.861 282.715 158.977C281.379 159.104 279.992 158.982 278.554 158.61C276.08 157.934 274.148 156.753 272.759 155.068C271.37 153.383 270.533 151.28 270.249 148.762C269.96 146.255 270.243 143.409 271.097 140.224C271.973 136.952 273.223 134.227 274.845 132.049C276.464 129.883 278.46 128.395 280.833 127.587C283.214 126.793 285.983 126.813 289.138 127.645L286.538 137.349C285.369 137.101 284.323 137.13 283.4 137.434C282.477 137.738 281.689 138.301 281.034 139.124C280.377 139.959 279.874 141.026 279.526 142.325C279.234 143.415 279.124 144.364 279.197 145.171C279.27 145.979 279.495 146.637 279.871 147.145C280.248 147.653 280.741 147.995 281.351 148.171C281.931 148.314 282.485 148.258 283.012 148.006C283.549 147.769 284.099 147.286 284.663 146.557C285.238 145.832 285.867 144.812 286.548 143.497L288.362 139.965C289.978 136.826 291.891 134.522 294.099 133.052C296.316 131.597 298.895 131.271 301.835 132.072C304.23 132.7 306.151 133.898 307.597 135.664C309.052 137.446 309.975 139.617 310.367 142.178C310.756 144.751 310.551 147.526 309.754 150.503C308.939 153.541 307.726 156.033 306.114 157.978C304.502 159.923 302.609 161.247 300.435 161.952C298.27 162.672 295.953 162.707 293.484 162.059L296.104 152.282Z" fill="#6C95FF"/>
<path d="M221.934 155.577L212.048 161.284L203.682 121.07L216.205 113.84L246.848 141.193L236.962 146.901L215.446 126.683L215.183 126.835L221.934 155.577ZM212.394 143.313L230.98 132.583L234.942 139.445L216.356 150.176L212.394 143.313Z" fill="#6C95FF"/>
<path d="M253.565 106.346C252.842 105.298 251.935 104.678 250.844 104.487C249.763 104.289 248.481 104.619 246.998 105.475C246.054 106.02 245.346 106.583 244.875 107.163C244.409 107.725 244.144 108.281 244.081 108.831C244.017 109.381 244.123 109.906 244.398 110.408C244.611 110.827 244.895 111.154 245.25 111.389C245.61 111.607 246.053 111.739 246.579 111.788C247.098 111.825 247.709 111.78 248.412 111.653C249.115 111.526 249.915 111.313 250.812 111.015L253.923 110.011C256.019 109.329 257.919 108.928 259.623 108.81C261.327 108.691 262.855 108.827 264.209 109.219C265.557 109.599 266.742 110.22 267.766 111.08C268.801 111.934 269.696 113.001 270.45 114.282C271.721 116.509 272.252 118.71 272.043 120.884C271.833 123.058 270.938 125.136 269.359 127.118C267.79 129.094 265.578 130.907 262.722 132.556C259.789 134.249 256.978 135.293 254.291 135.686C251.614 136.073 249.151 135.713 246.902 134.607C244.657 133.484 242.713 131.513 241.07 128.693L249.77 123.67C250.422 124.672 251.181 125.392 252.049 125.829C252.917 126.266 253.873 126.426 254.917 126.307C255.973 126.181 257.082 125.782 258.247 125.11C259.225 124.546 259.973 123.952 260.492 123.33C261.012 122.707 261.318 122.083 261.411 121.458C261.504 120.832 261.397 120.241 261.091 119.685C260.781 119.175 260.351 118.822 259.799 118.627C259.252 118.415 258.521 118.368 257.607 118.485C256.687 118.591 255.522 118.868 254.111 119.316L250.33 120.531C246.968 121.607 243.986 121.884 241.386 121.362C238.789 120.823 236.735 119.231 235.222 116.585C233.973 114.447 233.462 112.242 233.688 109.971C233.919 107.682 234.801 105.493 236.335 103.406C237.879 101.312 239.986 99.4941 242.656 97.953C245.38 96.3801 248 95.4761 250.515 95.241C253.03 95.0058 255.305 95.4078 257.341 96.4468C259.38 97.4685 261.044 99.0814 262.331 101.285L253.565 106.346Z" fill="#6C95FF"/>
<path d="M143.622 155.746L130.77 163.166L132.568 166.279L144.783 166.279L144.427 165.663L147.656 163.798C149.414 162.783 151.052 162.197 152.572 162.038C154.102 161.873 155.561 162.269 156.95 163.227C157.934 163.897 158.909 164.915 159.874 166.279L171.995 166.279C171.538 165.149 170.978 164.009 170.313 162.858C168.282 159.339 165.847 156.72 163.009 155C160.175 153.264 157.103 152.457 153.79 152.58C150.483 152.686 147.094 153.742 143.622 155.746Z" fill="#6C95FF"/>
<path d="M189.12 129.478L164.8 143.519L177.94 166.279L203.397 166.279L208.559 163.299L204.292 155.909L189.199 164.623L185.847 158.816L199.754 150.787L195.487 143.397L181.58 151.426L178.228 145.62L193.387 136.868L189.12 129.478Z" fill="#6C95FF"/>
<path d="M126.779 166.279L126.428 165.673L125.378 166.279L126.779 166.279Z" fill="#6C95FF"/>
<defs>
<filter id="filter0_d_426_452" x="172" y="337" width="106" height="124" filterUnits="userSpaceOnUse" color-interpolation-filters="sRGB">
<feFlood flood-opacity="0" result="BackgroundImageFix"/>
<feColorMatrix in="SourceAlpha" type="matrix" values="0 0 0 0 0 0 0 0 0 0 0 0 0 0 0 0 0 0 127 0" result="hardAlpha"/>
<feMorphology radius="2" operator="dilate" in="SourceAlpha" result="effect1_dropShadow_426_452"/>
<feOffset dx="-8" dy="2"/>
<feGaussianBlur stdDeviation="5.5"/>
<feComposite in2="hardAlpha" operator="out"/>
<feColorMatrix type="matrix" values="0 0 0 0 0 0 0 0 0 0 0 0 0 0 0 0 0 0 0.25 0"/>
<feBlend mode="normal" in2="BackgroundImageFix" result="effect1_dropShadow_426_452"/>
<feBlend mode="normal" in="SourceGraphic" in2="effect1_dropShadow_426_452" result="shape"/>
</filter>
</defs>
</svg>
