<svg width="61" height="65" viewBox="0 0 61 65" fill="none" xmlns="http://www.w3.org/2000/svg">
<path d="M0 0L43.5223 16.4983C49.9312 18.4536 54.4319 24.1293 54.95 30.7238C55.0009 31.3713 54.3905 31.8493 53.76 31.6935L15.6514 21.5311C12.3212 20.8805 9.47765 18.7294 7.94561 15.7018L0 0Z" fill="#AE0000"/>
<path d="M7 20.8901L54.731 32.818C55.1552 32.9188 55.4637 33.6928 55.497 33.7793C55.4991 33.7848 55.5005 33.7885 55.5024 33.7941C55.7398 34.487 56.8539 39.9997 57.0117 40.7826C57.0245 40.8462 57.0319 40.9079 57.026 40.9724C56.9751 41.5234 56.4791 41.9366 55.9169 41.8724L27.0007 38.4575C21.0564 38.1712 15.6377 34.9654 12.525 29.8931L7 20.8901Z" fill="#AE0000"/>
<path d="M15 38L56.5 42.8972C57.0042 42.9558 57.269 43.2809 57.3845 43.8905C57.4811 44.4002 57.8465 46.2874 57.9637 46.8919C57.9879 47.0173 58.003 47.1441 57.9909 47.2713C57.8971 48.2558 57.0886 49.037 56.081 49.0778L34.6091 48.9888C26.7781 49.3063 19.3474 44.5211 15 38Z" fill="#AE0000"/>
<path d="M54.3905 50.876C54.4531 50.3755 54.8785 50 55.3828 50H58.6172C59.1215 50 59.5469 50.3755 59.6095 50.876L60.3798 57.0386C60.7633 60.1066 59.4735 63.1449 57 65C54.5265 63.1449 53.2367 60.1066 53.6202 57.0386L54.3905 50.876Z" fill="#AE0000"/>
<path d="M48.8412 54.6352C48.9458 54.2167 49.1395 53.8256 49.409 53.4887L51.0658 51.4178C51.672 50.66 52.8938 51.1231 52.8454 52.0924L52.5839 57.3211C52.5318 58.3641 51.941 59.3049 51.0242 59.805L47 62L48.8412 54.6352Z" fill="#AE0000"/>
</svg>
