<svg width="102" height="28" viewBox="0 0 102 28" fill="none" xmlns="http://www.w3.org/2000/svg">
<path d="M80.8002 7.86V6.18H77.2002V21.81H80.8502V15.69C80.8502 11.92 81.1902 9.21 86.2502 9.56V6C83.8902 5.82 82.0502 6.31 80.8002 7.87" fill="white" fill-opacity="0.9"/>
<path d="M55.5098 6.17L52.8698 17.11L50.0498 6.17H45.4098L42.5898 17.11L39.9498 6.17H36.2598L40.3098 21.82H44.6898L47.7298 10.71L50.7398 21.82H55.1198L59.3998 6.17H55.5098Z" fill="white" fill-opacity="0.9"/>
<path d="M67.4201 19.07C64.8301 19.07 62.8901 17.02 62.8901 14.07C62.8901 11.12 64.8901 9.07 67.4201 9.07C69.9501 9.07 72.0001 11 72.0001 14C72.0001 17 70.0001 19 67.4601 19M67.4601 5.65C66.3658 5.63461 65.2798 5.84114 64.2675 6.25712C63.2552 6.67309 62.3377 7.28988 61.5705 8.07026C60.8032 8.85064 60.202 9.77841 59.8032 10.7976C59.4044 11.8167 59.2162 12.9061 59.2501 14C59.2117 15.0976 59.3948 16.1917 59.7883 17.2171C60.1818 18.2424 60.7778 19.178 61.5407 19.9681C62.3037 20.7582 63.2179 21.3865 64.2288 21.8156C65.2398 22.2448 66.3268 22.466 67.4251 22.466C68.5234 22.466 69.6104 22.2448 70.6214 21.8156C71.6324 21.3865 72.5466 20.7582 73.3095 19.9681C74.0724 19.178 74.6684 18.2424 75.0619 17.2171C75.4555 16.1917 75.6385 15.0976 75.6001 14C75.627 12.9124 75.4347 11.8304 75.0348 10.8186C74.6349 9.80679 74.0355 8.88579 73.2723 8.11043C72.509 7.33507 71.5976 6.7212 70.5922 6.30538C69.5868 5.88956 68.5081 5.68028 67.4201 5.69" fill="white" fill-opacity="0.9"/>
<path d="M91.4698 14.13H92.3098L97.3998 21.82H101.51L95.6598 13.29C97.0669 12.7098 98.2692 11.7237 99.1134 10.4574C99.9576 9.19104 100.405 7.70193 100.4 6.18H96.7698C96.7698 9.55 94.1098 10.83 91.4698 10.83V0H87.8198V21.82H91.4598L91.4698 14.13Z" fill="white" fill-opacity="0.9"/>
<path d="M28.1801 19.06C27.1348 19.0018 26.1187 18.6935 25.2173 18.161C24.3159 17.6285 23.5555 16.8874 23.0001 16C23.6701 10.66 25.6201 9 28.2001 9C30.7801 9 32.7401 11 32.7401 14C32.7401 17 30.7401 19 28.2001 19M28.2001 5.66C26.3793 5.58622 24.5906 6.15471 23.1465 7.2661C21.7025 8.37749 20.6949 9.96106 20.3001 11.74C19.4441 9.94658 18.7965 8.06094 18.3701 6.12H12.0001V14.02C12.0001 16.89 10.7001 19.02 8.15008 19.02C5.60008 19.02 4.15008 16.9 4.15008 14.02V6.12H0.490084V14.02C0.407019 16.2092 1.16158 18.3477 2.60008 20C3.30222 20.7645 4.15993 21.3698 5.11552 21.7751C6.0711 22.1805 7.10242 22.3765 8.14008 22.35C12.5501 22.35 15.6401 18.96 15.6401 14.11V8.77C16.389 11.6435 17.6271 14.3666 19.3001 16.82L17.3401 28H21.0601L22.3501 20.08C22.7771 20.4477 23.2318 20.782 23.7101 21.08C24.9528 21.8649 26.3812 22.3065 27.8501 22.36H28.1901C29.2827 22.3714 30.3664 22.1615 31.3758 21.7431C32.3853 21.3247 33.2996 20.7064 34.0638 19.9253C34.828 19.1443 35.4263 18.2167 35.8227 17.1984C36.219 16.1801 36.4052 15.0922 36.3701 14C36.3956 12.9119 36.2021 11.8297 35.801 10.8179C35.4 9.806 34.7996 8.8851 34.0356 8.10988C33.2716 7.33467 32.3595 6.72097 31.3536 6.30526C30.3477 5.88955 29.2685 5.68032 28.1801 5.69" fill="#14A800"/>
</svg>
