<svg width="938" height="913" viewBox="0 0 938 913" fill="none" xmlns="http://www.w3.org/2000/svg">
<rect x="270" width="480" height="320" fill="#D0DDFF"/>
<rect x="270" width="480" height="40" fill="#6C95FF"/>
<rect x="282" y="51" width="313" height="125" rx="24" fill="white"/>
<rect x="613" y="51" width="125" height="125" rx="24" fill="white"/>
<rect x="282" y="188" width="456" height="34" rx="12" fill="white"/>
<rect x="282" y="231" width="456" height="34" rx="12" fill="white"/>
<rect x="282" y="274" width="456" height="34" rx="12" fill="white"/>
<circle cx="730" cy="20" r="8" fill="white"/>
<circle cx="730" cy="20" r="8" fill="white"/>
<circle cx="730" cy="20" r="8" fill="white"/>
<circle cx="704" cy="20" r="8" fill="white"/>
<circle cx="704" cy="20" r="8" fill="white"/>
<circle cx="704" cy="20" r="8" fill="white"/>
<circle cx="678" cy="20" r="8" fill="white"/>
<circle cx="678" cy="20" r="8" fill="white"/>
<circle cx="678" cy="20" r="8" fill="white"/>
<rect x="330" y="60" width="480" height="320" fill="#D0DDFF"/>
<rect x="330" y="60" width="480" height="40" fill="#6C95FF"/>
<rect x="342" y="111" width="212" height="125" rx="24" fill="white"/>
<path d="M570 188.22V164.338L644.06 134.684V159.76L596.877 176.08L597.673 174.886V177.672L596.877 176.478L644.06 192.798V217.874L570 188.22Z" fill="white"/>
<path d="M712.571 111L679.722 233H656.429L689.278 111H712.571Z" fill="white"/>
<path d="M799 188.22L724.94 217.874V192.798L772.123 176.478L771.327 177.672V174.886L772.123 176.08L724.94 159.76V134.684L799 164.338V188.22Z" fill="white"/>
<rect x="342" y="248" width="212" height="34" rx="12" fill="white"/>
<rect x="342" y="291" width="212" height="34" rx="12" fill="white"/>
<rect x="342" y="334" width="212" height="34" rx="12" fill="white"/>
<rect x="570" y="248" width="229" height="34" rx="12" fill="white"/>
<rect x="570" y="291" width="229" height="34" rx="12" fill="white"/>
<rect x="570" y="334" width="229" height="34" rx="12" fill="white"/>
<circle cx="791" cy="80" r="8" fill="white"/>
<circle cx="791" cy="80" r="8" fill="white"/>
<circle cx="791" cy="80" r="8" fill="white"/>
<circle cx="765" cy="80" r="8" fill="white"/>
<circle cx="765" cy="80" r="8" fill="white"/>
<circle cx="765" cy="80" r="8" fill="white"/>
<circle cx="739" cy="80" r="8" fill="white"/>
<circle cx="739" cy="80" r="8" fill="white"/>
<circle cx="739" cy="80" r="8" fill="white"/>
<rect x="390" y="120" width="480" height="320" fill="#D0DDFF"/>
<rect x="390" y="120" width="480" height="40" fill="#6C95FF"/>
<path d="M630 248.22V224.338L704.06 194.684V219.76L656.877 236.08L657.673 234.886V237.672L656.877 236.478L704.06 252.798V277.874L630 248.22Z" fill="white"/>
<path d="M772.571 171L739.722 293H716.429L749.278 171H772.571Z" fill="white"/>
<path d="M859 248.22L784.94 277.874V252.798L832.123 236.478L831.327 237.672V234.886L832.123 236.08L784.94 219.76V194.684L859 224.338V248.22Z" fill="white"/>
<rect x="402" y="351" width="212" height="77" rx="12" fill="white"/>
<rect x="630" y="308" width="229" height="34" rx="12" fill="white"/>
<rect x="630" y="351" width="229" height="34" rx="12" fill="white"/>
<rect x="630" y="394" width="229" height="34" rx="12" fill="white"/>
<circle cx="851" cy="140" r="8" fill="white"/>
<circle cx="851" cy="140" r="8" fill="white"/>
<circle cx="851" cy="140" r="8" fill="white"/>
<circle cx="825" cy="140" r="8" fill="white"/>
<circle cx="825" cy="140" r="8" fill="white"/>
<circle cx="825" cy="140" r="8" fill="white"/>
<circle cx="799" cy="140" r="8" fill="white"/>
<circle cx="799" cy="140" r="8" fill="white"/>
<circle cx="799" cy="140" r="8" fill="white"/>
<circle cx="507.5" cy="256" r="86" fill="#6C95FF"/>
<circle cx="507.027" cy="216.78" r="37.3297" fill="white"/>
<path d="M582.16 295.692C582.16 284.664 574.295 274.087 560.293 266.289C546.292 258.491 527.302 254.11 507.501 254.11C487.7 254.11 468.71 258.491 454.709 266.289C440.708 274.087 432.842 284.664 432.842 295.692L507.501 295.692H582.16Z" fill="white"/>
<path fill-rule="evenodd" clip-rule="evenodd" d="M131.699 495.237L195.055 717.565L241.279 881.433H274.994L225.873 495.237H131.699Z" fill="#191847"/>
<path fill-rule="evenodd" clip-rule="evenodd" d="M114.758 495.237C113.292 609.828 108.295 672.328 106.757 682.739C105.218 693.15 81.9535 759.382 36.9629 881.433H71.8888C129.165 764.346 161.139 698.114 167.809 682.739C174.478 667.364 195.062 604.864 226.066 495.237H114.758Z" fill="#2F3676"/>
<path fill-rule="evenodd" clip-rule="evenodd" d="M33.8398 912.888L35.5873 876.191H72.2847C89.6856 888.423 112.403 898.326 140.437 905.898V912.888H74.0322L51.3148 909.393V912.888H33.8398Z" fill="#191847"/>
<path fill-rule="evenodd" clip-rule="evenodd" d="M236.549 912.888L238.296 876.191H274.994C292.395 888.423 315.112 898.326 343.146 905.898V912.888H276.741L254.024 909.393V912.888H236.549Z" fill="#191847"/>
<path fill-rule="evenodd" clip-rule="evenodd" d="M195.608 236.292C187.475 226.746 181.971 215.047 182.891 201.937C185.541 164.165 238.12 172.475 248.348 191.539C258.576 210.603 257.361 258.96 244.142 262.367C238.871 263.726 227.641 260.397 216.211 253.508L223.385 304.262H181.025L195.608 236.292Z" fill="#FFD0A5"/>
<path fill-rule="evenodd" clip-rule="evenodd" d="M229.667 194.303C223.919 197.519 219.828 203.544 214.903 211.448C213.704 210.976 212.398 210.717 211.031 210.717C205.182 210.717 200.441 215.459 200.441 221.307C200.441 224.276 201.663 226.96 203.631 228.883C201.181 232.342 198.435 235.955 195.288 239.683C183.545 232.638 174.811 212.103 186.023 192.281C195.67 152.574 250.335 177.219 260.852 170.523C263.151 184.931 255.736 196.55 229.667 194.303Z" fill="#191847"/>
<path fill-rule="evenodd" clip-rule="evenodd" d="M316.531 402.741L375.048 377.042C385.299 366.828 395.197 359.064 404.744 353.751C407.598 352.842 412.475 352.568 407.272 360.168C402.069 367.768 396.937 375.996 399.016 378.659C401.096 381.323 407.118 378.383 409.498 382.714C411.084 385.602 400.932 389.056 379.041 393.077L335.216 426.678L316.531 402.741ZM79.9535 409.819L113.047 416.385C79.7659 478.408 61.918 511.28 59.503 515.001C54.0692 523.375 59.139 538.72 61.0118 546.801C49.2632 549.536 53.8965 531.853 39.0288 535.545C25.4583 538.915 13.9522 547.564 1.29823 535.9C-0.257502 534.466 -1.39637 529.983 3.90789 527.685C17.1227 521.957 36.6466 511.232 39.8124 507.069C44.1295 501.391 57.5099 468.974 79.9535 409.819Z" fill="#FFD0A5"/>
<path fill-rule="evenodd" clip-rule="evenodd" d="M202.991 286.004L216.955 283.609C247.372 313.114 259.784 384 280.055 393.383C299.219 402.254 326.387 393.67 358.68 382.078L368.569 404.174C339.228 435.918 276.72 462.736 251.383 447.426C210.874 422.949 201.522 335.521 202.991 286.004Z" fill="#4987FF"/>
<path fill-rule="evenodd" clip-rule="evenodd" d="M142 495H233C238.5 495 250.019 456 246.5 435C237.079 378.778 223.147 363.648 223.147 283.618L187.502 277C158.018 333.142 147.822 402.263 142 495Z" fill="#DDE3E9"/>
<path fill-rule="evenodd" clip-rule="evenodd" d="M129.791 413.426C104.602 458.862 83.4292 491.574 66.2728 511.561L40.373 506.488C57.0565 403.021 105.369 326.656 185.312 277.393H185.719H199.424C231.42 386.462 240.241 459.135 225.886 495.412H114.661C116.421 468.867 122.063 440.796 129.791 413.426Z" fill="#6C95FF"/>
<path d="M853.998 589.231C853.998 586.79 855.977 584.811 858.419 584.811V584.811C860.86 584.811 862.839 586.79 862.839 589.231V760.08H853.998V589.231Z" fill="#6C95FF"/>
<ellipse cx="49.2872" cy="14.1881" rx="49.2872" ry="14.1881" transform="matrix(0.77379 0.633442 -0.635044 0.772476 783.02 516.585)" fill="#6C95FF"/>
<ellipse cx="14.4374" cy="35.0019" rx="14.4374" ry="35.0019" transform="matrix(0.952603 0.304217 -0.305385 0.952229 865.357 496)" fill="#6C95FF"/>
<ellipse cx="43.5797" cy="8.82951" rx="43.5797" ry="8.82951" transform="matrix(0.783423 -0.621489 0.6231 0.782142 858.715 578.988)" fill="#6C95FF"/>
<ellipse cx="17.3751" cy="6.1799" rx="17.3751" ry="6.1799" transform="matrix(0.819411 -0.573207 0.574833 0.818271 853.998 682.366)" fill="#6C95FF"/>
<path d="M916.227 772.204V876.315C916.227 883.271 915.049 890.178 912.743 896.742L912.356 897.846H920.207C922.308 897.846 923.36 900.382 921.873 901.863L916.564 907.153C912.807 910.897 907.714 913 902.404 913H815.022C809.713 913 804.62 910.897 800.862 907.153L795.554 901.863C794.067 900.382 795.119 897.846 797.22 897.846H805.071L804.684 896.742C802.378 890.178 801.2 883.271 801.2 876.315V772.204L797.38 768.397C796.285 767.306 795.67 765.825 795.67 764.281C795.67 761.961 797.555 760.08 799.88 760.08H917.547C919.872 760.08 921.757 761.961 921.757 764.281C921.757 765.825 921.142 767.306 920.047 768.397L916.227 772.204Z" fill="#ACBEEB"/>
<rect x="412" y="575" width="320" height="20" fill="#6C95FF"/>
<path d="M427.129 595H440L400.355 913H393L427.129 595Z" fill="#ACBEEB"/>
<path d="M716.871 595H704L743.645 913H751L716.871 595Z" fill="#ACBEEB"/>
</svg>
